<?xml version="1.0" standalone="no"?>
<!DOCTYPE svg PUBLIC "-//W3C//DTD SVG 1.1//EN"
"http://www.w3.org/Graphics/SVG/1.1/DTD/svg11.dtd">
<svg width="400" height="400" version="1.1" xmlns="http://www.w3.org/2000/svg" xmlns:xlink="http://www.w3.org/1999/xlink">
<!-- Created by igraph -->

<defs>
  <symbol id="Triangle" overflow="visible">
    <path d="M 0 0 L 10 -5 L 10 5 z"/>
  </symbol>
  <style type="text/css">
    <![CDATA[
#vertices circle { stroke: black; stroke-width: 1 }
#vertices rect { stroke: black; stroke-width: 1 }
#vertices text { text-anchor: middle; font-size: 16px; font-family: sans-serif; font-weight: normal }
#edges line { stroke-width: 1 }
    ]]>
  </style>
</defs>

<g transform="translate(200.0000,200.0000)">
  <g id="edges">
  <!-- Edges -->
    <line x1="114.9173" y1="-173.4351" x2="84.4375" y2="-154.5166" style="stroke: grey"/>
    <line x1="114.9173" y1="-173.4351" x2="149.6212" y2="-164.9398" style="stroke: grey"/>
    <line x1="75.9411" y1="-149.2429" x2="59.8902" y2="-108.0505" style="stroke: grey"/>
    <line x1="43.4737" y1="128.0130" x2="84.1296" y2="90.3522" style="stroke: grey"/>
    <line x1="-41.0190" y1="-69.9628" x2="-11.9129" y2="-36.1443" style="stroke: grey"/>
    <line x1="118.5660" y1="127.2920" x2="112.5324" y2="108.3866" style="stroke: grey"/>
    <line x1="118.5660" y1="127.2920" x2="96.7329" y2="92.0569" style="stroke: grey"/>
    <line x1="-5.3897" y1="-28.5649" x2="23.5053" y2="2.0070" style="stroke: grey"/>
    <line x1="-5.3897" y1="-28.5649" x2="34.4960" y2="-9.7342" style="stroke: grey"/>
    <line x1="-5.3897" y1="-28.5649" x2="21.7356" y2="30.7607" style="stroke: grey"/>
    <line x1="135.2849" y1="74.3219" x2="34.8574" y2="66.9762" style="stroke: grey"/>
    <line x1="24.8840" y1="66.2467" x2="-76.4990" y2="48.3543" style="stroke: grey"/>
    <line x1="24.8840" y1="66.2467" x2="-0.7154" y2="106.6444" style="stroke: grey"/>
    <line x1="24.8840" y1="66.2467" x2="52.4302" y2="14.6614" style="stroke: grey"/>
    <line x1="24.8840" y1="66.2467" x2="41.0213" y2="4.2130" style="stroke: grey"/>
    <line x1="109.4921" y1="98.8600" x2="99.0891" y2="90.0283" style="stroke: grey"/>
    <line x1="109.4921" y1="98.8600" x2="77.5438" y2="59.8901" style="stroke: grey"/>
    <line x1="109.4921" y1="98.8600" x2="106.0404" y2="72.5710" style="stroke: grey"/>
    <line x1="87.8108" y1="-22.4701" x2="107.0022" y2="-49.9095" style="stroke: grey"/>
    <line x1="87.8108" y1="-22.4701" x2="113.1756" y2="-29.3959" style="stroke: grey"/>
    <line x1="87.8108" y1="-22.4701" x2="64.4887" y2="-0.9424" style="stroke: grey"/>
    <line x1="87.8108" y1="-22.4701" x2="82.1563" y2="17.1507" style="stroke: grey"/>
    <line x1="87.8108" y1="-22.4701" x2="52.8739" y2="-9.0506" style="stroke: grey"/>
    <line x1="87.8108" y1="-22.4701" x2="85.1334" y2="-3.4494" style="stroke: grey"/>
    <line x1="162.8216" y1="115.4798" x2="100.5939" y2="87.6402" style="stroke: grey"/>
    <line x1="91.4658" y1="83.5565" x2="76.6259" y2="60.5592" style="stroke: grey"/>
    <line x1="91.4658" y1="83.5565" x2="82.6077" y2="36.8751" style="stroke: grey"/>
    <line x1="91.4658" y1="83.5565" x2="84.7366" y2="16.4032" style="stroke: grey"/>
    <line x1="91.4658" y1="83.5565" x2="99.3778" y2="71.0977" style="stroke: grey"/>
    <line x1="-190.0000" y1="4.1130" x2="-159.0475" y2="17.7606" style="stroke: grey"/>
    <line x1="-149.8975" y1="21.7951" x2="-95.6615" y2="42.9783" style="stroke: grey"/>
    <line x1="112.7335" y1="-58.1041" x2="119.2138" y2="-41.3561" style="stroke: grey"/>
    <line x1="112.7335" y1="-58.1041" x2="63.7016" y2="-1.7064" style="stroke: grey"/>
    <line x1="112.7335" y1="-58.1041" x2="145.6393" y2="-105.8559" style="stroke: grey"/>
    <line x1="122.8224" y1="-32.0299" x2="90.8651" y2="-0.5632" style="stroke: grey"/>
    <line x1="160.0574" y1="19.8230" x2="90.7022" y2="26.1429" style="stroke: grey"/>
    <line x1="-86.3468" y1="46.6163" x2="-119.8418" y2="65.0663" style="stroke: grey"/>
    <line x1="-86.3468" y1="46.6163" x2="-56.5853" y2="26.4122" style="stroke: grey"/>
    <line x1="106.1649" y1="12.3889" x2="89.4060" y2="22.0544" style="stroke: grey"/>
    <line x1="106.1649" y1="12.3889" x2="53.1557" y2="-2.7233" style="stroke: grey"/>
    <line x1="106.1649" y1="12.3889" x2="93.4066" y2="9.0118" style="stroke: grey"/>
    <line x1="106.1649" y1="12.3889" x2="61.3979" y2="24.5086" style="stroke: grey"/>
    <line x1="56.2595" y1="-98.7329" x2="44.8903" y2="-15.3732" style="stroke: grey"/>
    <line x1="30.3742" y1="9.2745" x2="47.2219" y2="7.1129" style="stroke: grey"/>
    <line x1="30.3742" y1="9.2745" x2="19.0097" y2="-3.7168" style="stroke: grey"/>
    <line x1="30.3742" y1="9.2745" x2="71.3135" y2="23.7224" style="stroke: grey"/>
    <line x1="30.3742" y1="9.2745" x2="36.8775" y2="1.9933" style="stroke: grey"/>
    <line x1="30.3742" y1="9.2745" x2="73.7535" y2="6.9810" style="stroke: grey"/>
    <line x1="30.3742" y1="9.2745" x2="27.3435" y2="29.9608" style="stroke: grey"/>
    <line x1="30.3742" y1="9.2745" x2="14.7625" y2="12.0995" style="stroke: grey"/>
    <line x1="30.3742" y1="9.2745" x2="44.0698" y2="20.7119" style="stroke: grey"/>
    <line x1="71.2039" y1="52.1567" x2="9.0960" y2="46.7577" style="stroke: grey"/>
    <line x1="71.2039" y1="52.1567" x2="77.1915" y2="36.3983" style="stroke: grey"/>
    <line x1="71.2039" y1="52.1567" x2="47.8670" y2="3.5499" style="stroke: grey"/>
    <line x1="71.2039" y1="52.1567" x2="81.0944" y2="16.0968" style="stroke: grey"/>
    <line x1="71.2039" y1="52.1567" x2="95.1955" y2="59.6683" style="stroke: grey"/>
    <line x1="71.2039" y1="52.1567" x2="57.8822" y2="35.0173" style="stroke: grey"/>
    <line x1="-0.8664" y1="45.8917" x2="36.9983" y2="2.0995" style="stroke: grey"/>
    <line x1="57.1406" y1="5.8403" x2="73.3054" y2="20.3664" style="stroke: grey"/>
    <line x1="57.1406" y1="5.8403" x2="51.2293" y2="0.9271" style="stroke: grey"/>
    <line x1="57.1406" y1="5.8403" x2="73.7422" y2="6.2227" style="stroke: grey"/>
    <line x1="57.1406" y1="5.8403" x2="32.6589" y2="32.4908" style="stroke: grey"/>
    <line x1="57.1406" y1="5.8403" x2="-38.4107" y2="19.3914" style="stroke: grey"/>
    <line x1="159.3344" y1="-162.5620" x2="182.5476" y2="-183.3320" style="stroke: grey"/>
    <line x1="159.3344" y1="-162.5620" x2="152.9461" y2="-123.9560" style="stroke: grey"/>
    <line x1="80.8303" y1="190.0000" x2="69.5429" y2="154.1587" style="stroke: grey"/>
    <line x1="12.4256" y1="-11.2434" x2="33.7070" y2="-7.2909" style="stroke: grey"/>
    <line x1="12.4256" y1="-11.2434" x2="44.5879" y2="20.1381" style="stroke: grey"/>
    <line x1="32.7183" y1="-60.5347" x2="41.6109" y2="-15.2773" style="stroke: grey"/>
    <line x1="-32.4343" y1="80.0858" x2="17.6620" y2="45.5329" style="stroke: grey"/>
    <line x1="80.7435" y1="27.0504" x2="51.0685" y2="1.1157" style="stroke: grey"/>
    <line x1="80.7435" y1="27.0504" x2="82.3001" y2="16.3488" style="stroke: grey"/>
    <line x1="80.7435" y1="27.0504" x2="99.1501" y2="54.3635" style="stroke: grey"/>
    <line x1="80.7435" y1="27.0504" x2="14.7748" y2="15.5915" style="stroke: grey"/>
    <line x1="80.7435" y1="27.0504" x2="61.7453" y2="27.0972" style="stroke: grey"/>
    <line x1="43.5389" y1="-5.4649" x2="74.1520" y2="3.6107" style="stroke: grey"/>
    <line x1="43.5389" y1="-5.4649" x2="29.5220" y2="30.5365" style="stroke: grey"/>
    <line x1="43.5389" y1="-5.4649" x2="13.8632" y2="9.4011" style="stroke: grey"/>
    <line x1="43.5389" y1="-5.4649" x2="49.3032" y2="17.4246" style="stroke: grey"/>
    <line x1="66.5391" y1="144.6205" x2="29.5109" y2="49.1781" style="stroke: grey"/>
    <line x1="25.8939" y1="39.8551" x2="42.7745" y2="31.5404" style="stroke: grey"/>
  </g>

  <g id="vertices">
  <!-- Vertices -->
    <g transform="translate(114.9173 -173.4351)">
      <circle cx="0" cy="0" r="10" fill="blue"/>
      <text x="0" y="5"></text>
    </g>
    <g transform="translate(75.9411 -149.2429)">
      <circle cx="0" cy="0" r="10" fill="red"/>
      <text x="0" y="5"></text>
    </g>
    <g transform="translate(43.4737 128.0130)">
      <circle cx="0" cy="0" r="10" fill="blue"/>
      <text x="0" y="5"></text>
    </g>
    <g transform="translate(-41.0190 -69.9628)">
      <circle cx="0" cy="0" r="10" fill="blue"/>
      <text x="0" y="5"></text>
    </g>
    <g transform="translate(118.5660 127.2920)">
      <circle cx="0" cy="0" r="10" fill="red"/>
      <text x="0" y="5"></text>
    </g>
    <g transform="translate(-5.3897 -28.5649)">
      <circle cx="0" cy="0" r="10" fill="red"/>
      <text x="0" y="5"></text>
    </g>
    <g transform="translate(135.2849 74.3219)">
      <circle cx="0" cy="0" r="10" fill="blue"/>
      <text x="0" y="5"></text>
    </g>
    <g transform="translate(24.8840 66.2467)">
      <circle cx="0" cy="0" r="10" fill="red"/>
      <text x="0" y="5"></text>
    </g>
    <g transform="translate(109.4921 98.8600)">
      <circle cx="0" cy="0" r="10" fill="red"/>
      <text x="0" y="5"></text>
    </g>
    <g transform="translate(87.8108 -22.4701)">
      <circle cx="0" cy="0" r="10" fill="blue"/>
      <text x="0" y="5"></text>
    </g>
    <g transform="translate(162.8216 115.4798)">
      <circle cx="0" cy="0" r="10" fill="red"/>
      <text x="0" y="5"></text>
    </g>
    <g transform="translate(91.4658 83.5565)">
      <circle cx="0" cy="0" r="10" fill="red"/>
      <text x="0" y="5"></text>
    </g>
    <g transform="translate(-190.0000 4.1130)">
      <circle cx="0" cy="0" r="10" fill="red"/>
      <text x="0" y="5"></text>
    </g>
    <g transform="translate(-149.8975 21.7951)">
      <circle cx="0" cy="0" r="10" fill="black"/>
      <text x="0" y="5"></text>
    </g>
    <g transform="translate(112.7335 -58.1041)">
      <circle cx="0" cy="0" r="10" fill="blue"/>
      <text x="0" y="5"></text>
    </g>
    <g transform="translate(122.8224 -32.0299)">
      <circle cx="0" cy="0" r="10" fill="green"/>
      <text x="0" y="5"></text>
    </g>
    <g transform="translate(160.0574 19.8230)">
      <circle cx="0" cy="0" r="10" fill="green"/>
      <text x="0" y="5"></text>
    </g>
    <g transform="translate(-86.3468 46.6163)">
      <circle cx="0" cy="0" r="10" fill="blue"/>
      <text x="0" y="5"></text>
    </g>
    <g transform="translate(-128.6009 69.8911)">
      <circle cx="0" cy="0" r="10" fill="red"/>
      <text x="0" y="5"></text>
    </g>
    <g transform="translate(106.1649 12.3889)">
      <circle cx="0" cy="0" r="10" fill="blue"/>
      <text x="0" y="5"></text>
    </g>
    <g transform="translate(56.2595 -98.7329)">
      <circle cx="0" cy="0" r="10" fill="blue"/>
      <text x="0" y="5"></text>
    </g>
    <g transform="translate(30.3742 9.2745)">
      <circle cx="0" cy="0" r="10" fill="blue"/>
      <text x="0" y="5"></text>
    </g>
    <g transform="translate(-6.0681 115.0912)">
      <circle cx="0" cy="0" r="10" fill="red"/>
      <text x="0" y="5"></text>
    </g>
    <g transform="translate(71.2039 52.1567)">
      <circle cx="0" cy="0" r="10" fill="green"/>
      <text x="0" y="5"></text>
    </g>
    <g transform="translate(-0.8664 45.8917)">
      <circle cx="0" cy="0" r="10" fill="blue"/>
      <text x="0" y="5"></text>
    </g>
    <g transform="translate(57.1406 5.8403)">
      <circle cx="0" cy="0" r="10" fill="blue"/>
      <text x="0" y="5"></text>
    </g>
    <g transform="translate(159.3344 -162.5620)">
      <circle cx="0" cy="0" r="10" fill="red"/>
      <text x="0" y="5"></text>
    </g>
    <g transform="translate(190.0000 -190.0000)">
      <circle cx="0" cy="0" r="10" fill="blue"/>
      <text x="0" y="5"></text>
    </g>
    <g transform="translate(80.8303 190.0000)">
      <circle cx="0" cy="0" r="10" fill="red"/>
      <text x="0" y="5"></text>
    </g>
    <g transform="translate(12.4256 -11.2434)">
      <circle cx="0" cy="0" r="10" fill="green"/>
      <text x="0" y="5"></text>
    </g>
    <g transform="translate(32.7183 -60.5347)">
      <circle cx="0" cy="0" r="10" fill="blue"/>
      <text x="0" y="5"></text>
    </g>
    <g transform="translate(-32.4343 80.0858)">
      <circle cx="0" cy="0" r="10" fill="blue"/>
      <text x="0" y="5"></text>
    </g>
    <g transform="translate(151.3135 -114.0902)">
      <circle cx="0" cy="0" r="10" fill="red"/>
      <text x="0" y="5"></text>
    </g>
    <g transform="translate(80.7435 27.0504)">
      <circle cx="0" cy="0" r="10" fill="blue"/>
      <text x="0" y="5"></text>
    </g>
    <g transform="translate(43.5389 -5.4649)">
      <circle cx="0" cy="0" r="10" fill="blue"/>
      <text x="0" y="5"></text>
    </g>
    <g transform="translate(66.5391 144.6205)">
      <circle cx="0" cy="0" r="10" fill="blue"/>
      <text x="0" y="5"></text>
    </g>
    <g transform="translate(83.7395 6.4530)">
      <circle cx="0" cy="0" r="10" fill="blue"/>
      <text x="0" y="5"></text>
    </g>
    <g transform="translate(25.8939 39.8551)">
      <circle cx="0" cy="0" r="10" fill="blue"/>
      <text x="0" y="5"></text>
    </g>
    <g transform="translate(104.7387 62.6561)">
      <circle cx="0" cy="0" r="10" fill="green"/>
      <text x="0" y="5"></text>
    </g>
    <g transform="translate(4.9224 13.8801)">
      <circle cx="0" cy="0" r="10" fill="blue"/>
      <text x="0" y="5"></text>
    </g>
    <g transform="translate(-48.3117 20.7955)">
      <circle cx="0" cy="0" r="10" fill="red"/>
      <text x="0" y="5"></text>
    </g>
    <g transform="translate(51.7453 27.1218)">
      <circle cx="0" cy="0" r="10" fill="blue"/>
      <text x="0" y="5"></text>
    </g>
  </g>
</g>

</svg>
